<svg id="bars-solid" xmlns="http://www.w3.org/2000/svg" width="24.333" height="21.291" viewBox="0 0 24.333 21.291">
  <path id="bars-solid-2" data-name="bars-solid" d="M.869,63.911H23.464a.869.869,0,0,0,.869-.869V60.869A.869.869,0,0,0,23.464,60H.869A.869.869,0,0,0,0,60.869v2.173A.869.869,0,0,0,.869,63.911Zm0,8.69H23.464a.869.869,0,0,0,.869-.869V69.559a.869.869,0,0,0-.869-.869H.869A.869.869,0,0,0,0,69.559v2.173A.869.869,0,0,0,.869,72.6Zm0,8.69H23.464a.869.869,0,0,0,.869-.869V78.249a.869.869,0,0,0-.869-.869H.869A.869.869,0,0,0,0,78.249v2.173A.869.869,0,0,0,.869,81.291Z" transform="translate(0 -60)" fill="#fff"/>
</svg>
