<svg xmlns="http://www.w3.org/2000/svg" width="20" height="24" viewBox="0 0 20 24">
  <path id="book" d="M20,16.875V1.125A1.1,1.1,0,0,0,18.929,0H4.286A4.4,4.4,0,0,0,0,4.5v15A4.4,4.4,0,0,0,4.286,24H18.929A1.1,1.1,0,0,0,20,22.875v-.75a1.156,1.156,0,0,0-.4-.877,10.969,10.969,0,0,1,0-3.5,1.139,1.139,0,0,0,.4-.872ZM5.714,6.281A.276.276,0,0,1,5.982,6h9.464a.276.276,0,0,1,.268.281v.938a.276.276,0,0,1-.268.281H5.982a.276.276,0,0,1-.268-.281Zm0,3A.276.276,0,0,1,5.982,9h9.464a.276.276,0,0,1,.268.281v.938a.276.276,0,0,1-.268.281H5.982a.276.276,0,0,1-.268-.281ZM17.027,21H4.286a1.5,1.5,0,0,1,0-3H17.027A17.716,17.716,0,0,0,17.027,21Z" fill="#fff"/>
</svg>
