<svg id="rocket-launch-duotone" xmlns="http://www.w3.org/2000/svg" width="26.2" height="26.2" viewBox="0 0 26.2 26.2">
  <path id="Caminho_598" data-name="Caminho 598" d="M1.826,139.466C.5,140.789-.151,144.1.029,147.62c3.536.182,6.836-.479,8.154-1.8,2.061-2.061,2.194-4.81.323-6.681S3.887,137.4,1.826,139.466Zm4.859,4.148a5.009,5.009,0,0,1-3.4.748,5.015,5.015,0,0,1,.749-3.4,1.882,1.882,0,1,1,2.649,2.649ZM2.658,129.355.129,134.412a1.439,1.439,0,0,0-.13.548,1.228,1.228,0,0,0,1.228,1.228H6.011c1.2-2.426,3.122-6.313,3.986-8.051l.078-.137H4.852A2.692,2.692,0,0,0,2.658,129.355Zm16.856,8.294c-1.738.87-5.632,2.8-8.051,4v4.788a1.234,1.234,0,0,0,1.226,1.217,1.435,1.435,0,0,0,.544-.13l5.052-2.527A2.684,2.684,0,0,0,19.64,142.8v-5.195l.01-.007v-.027Z" transform="translate(0 -121.45)" fill="#fff"/>
  <path id="Caminho_599" data-name="Caminho 599" d="M86.571,1a.857.857,0,0,0-.641-.643A18.82,18.82,0,0,0,81.675,0C77.113,0,73.657,2.078,70.8,6.541l-.083.146c-.864,1.738-2.786,5.625-3.986,8.051h.539a4.913,4.913,0,0,1,4.913,4.913V20.2c2.419-1.2,6.313-3.125,8.051-4l.143-.082C84.841,13.249,86.92,9.8,86.92,5.255A18.5,18.5,0,0,0,86.571,1ZM79.552,9.825a2.456,2.456,0,1,1,2.456-2.456A2.456,2.456,0,0,1,79.552,9.825Zm-14.8,9.69a5.015,5.015,0,0,0-.749,3.4,5.009,5.009,0,0,0,3.4-.749,1.882,1.882,0,1,0-2.649-2.649Z" transform="translate(-60.721)" fill="#fff"/>
</svg>
